<svg width="136" height="30" viewBox="0 0 136 30" fill="none" xmlns="http://www.w3.org/2000/svg">
<path d="M35 4.32H38.52V26.72H35V4.32Z" fill="#8D1E1E"/>
<path d="M41.1562 4.32H44.6763V23.52H50.4683V26.72H41.1562V4.32Z" fill="#8D1E1E"/>
<path d="M52.1562 4.32H55.6763V23.52H61.4683V26.72H52.1562V4.32Z" fill="#8D1E1E"/>
<path d="M68.2762 27.04C66.5696 27.04 65.2682 26.56 64.3722 25.6C63.4762 24.6187 63.0282 23.2213 63.0282 21.408V4.32H66.5483V21.664C66.5483 22.432 66.6976 22.9867 66.9963 23.328C67.3162 23.6693 67.7643 23.84 68.3403 23.84C68.9163 23.84 69.3536 23.6693 69.6523 23.328C69.9723 22.9867 70.1323 22.432 70.1323 21.664V4.32H73.5243V21.408C73.5243 23.2213 73.0763 24.6187 72.1803 25.6C71.2843 26.56 69.9829 27.04 68.2762 27.04Z" fill="#8D1E1E"/>
<path d="M76.0312 4.32H81.0553L83.2952 20.352H83.3592L85.5993 4.32H90.6232V26.72H87.2952V9.76H87.2313L84.6712 26.72H81.7272L79.1673 9.76H79.1032V26.72H76.0312V4.32Z" fill="#8D1E1E"/>
<path d="M93.25 4.32H96.77V26.72H93.25V4.32Z" fill="#8D1E1E"/>
<path d="M99.4062 4.32H103.822L107.246 17.728H107.31V4.32H110.446V26.72H106.83L102.606 10.368H102.542V26.72H99.4062V4.32Z" fill="#8D1E1E"/>
<path d="M118.15 27.04C116.423 27.04 115.1 26.5493 114.183 25.568C113.265 24.5867 112.807 23.2 112.807 21.408V9.632C112.807 7.84 113.265 6.45333 114.183 5.472C115.1 4.49067 116.423 4 118.15 4C119.878 4 121.201 4.49067 122.118 5.472C123.036 6.45333 123.494 7.84 123.494 9.632V21.408C123.494 23.2 123.036 24.5867 122.118 25.568C121.201 26.5493 119.878 27.04 118.15 27.04ZM118.15 23.84C119.367 23.84 119.975 23.104 119.975 21.632V9.408C119.975 7.936 119.367 7.2 118.15 7.2C116.934 7.2 116.326 7.936 116.326 9.408V21.632C116.326 23.104 116.934 23.84 118.15 23.84Z" fill="#8D1E1E"/>
<path d="M130.451 27.04C128.744 27.04 127.454 26.56 126.579 25.6C125.704 24.6187 125.267 23.2213 125.267 21.408V20.128H128.595V21.664C128.595 23.1147 129.203 23.84 130.419 23.84C131.016 23.84 131.464 23.6693 131.763 23.328C132.083 22.9653 132.243 22.3893 132.243 21.6C132.243 20.6613 132.03 19.84 131.603 19.136C131.176 18.4107 130.387 17.5467 129.235 16.544C127.784 15.264 126.771 14.112 126.195 13.088C125.619 12.0427 125.331 10.8693 125.331 9.568C125.331 7.79733 125.779 6.432 126.675 5.472C127.571 4.49067 128.872 4 130.579 4C132.264 4 133.534 4.49067 134.387 5.472C135.262 6.432 135.699 7.81867 135.699 9.632V10.56H132.371V9.408C132.371 8.64 132.222 8.08533 131.923 7.744C131.624 7.38133 131.187 7.2 130.611 7.2C129.438 7.2 128.851 7.91467 128.851 9.344C128.851 10.1547 129.064 10.912 129.491 11.616C129.939 12.32 130.739 13.1733 131.891 14.176C133.363 15.456 134.376 16.6187 134.931 17.664C135.486 18.7093 135.763 19.936 135.763 21.344C135.763 23.1787 135.304 24.5867 134.387 25.568C133.491 26.5493 132.179 27.04 130.451 27.04Z" fill="#8D1E1E"/>
<g clip-path="url(#clip0_1251_832)">
<path d="M26.2494 2.96045H25.1846V6.70326H28.9999V5.70639C28.9999 4.19295 27.7629 2.96045 26.2494 2.96045Z" fill="#8D1E1E"/>
<path d="M28.9999 7.64111H25.1846V11.9231H28.9999V7.64111Z" fill="#8D1E1E"/>
<path d="M28.9999 12.8569H25.1846V17.1435H28.9999V12.8569Z" fill="#8D1E1E"/>
<path d="M28.9999 18.0767H25.1846V22.3632H28.9999V18.0767Z" fill="#8D1E1E"/>
<path d="M25.1847 27.0395H26.2495C27.763 27.0395 29 25.8025 29 24.289V23.2967H25.1847V27.0395ZM0 24.289C0 25.8025 1.23703 27.0395 2.75047 27.0395H3.81531V23.2967H0V24.289ZM0 5.70639V6.70326H3.81531V2.96045H2.75047C1.23703 2.96045 0 4.19295 0 5.70639Z" fill="#8D1E1E"/>
<path d="M3.81531 7.64111H0V11.9231H3.81531V7.64111Z" fill="#8D1E1E"/>
<path d="M3.81531 18.0767H0V22.3632H3.81531V18.0767Z" fill="#8D1E1E"/>
<path d="M3.81531 12.8569H0V17.1435H3.81531V12.8569Z" fill="#8D1E1E"/>
<path d="M4.75342 27.0395H24.2469V2.96045H4.75342V27.0395ZM10.9204 9.69389C10.9204 9.52623 11.0111 9.37217 11.1561 9.28607C11.3011 9.19998 11.4778 9.19998 11.6228 9.28607L20.8122 14.5967C20.9572 14.6828 21.0478 14.8369 21.0478 15C21.0478 15.1676 20.9572 15.3217 20.8122 15.4078L11.6228 20.7094C11.5548 20.7501 11.4733 20.7728 11.3872 20.7728C11.3056 20.7728 11.2286 20.7501 11.1515 20.7094C11.0065 20.6233 10.9159 20.4692 10.9159 20.3061V9.69389H10.9204Z" fill="#8D1E1E"/>
</g>
<defs>
<clipPath id="clip0_1251_832">
<rect width="29" height="29" fill="white" transform="translate(0 0.5)"/>
</clipPath>
</defs>
</svg>
